<svg width="101.000000" height="16.526855" viewBox="0 0 101 16.5269" fill="none" xmlns="http://www.w3.org/2000/svg" xmlns:xlink="http://www.w3.org/1999/xlink">
	<defs/>
	<path id="image 86 (Traced)" d="M60.18 0.61L58.71 1.23L58.71 2.62L58.71 4.02L57.58 4.02L56.45 4.02L56.48 5.35L56.51 6.67L57.61 6.7L58.71 6.73L58.71 9.57C58.71 12.8 58.79 13.47 59.28 14.49C59.63 15.22 60.74 16.52 61 16.52C61.07 16.52 61.47 16.11 61.87 15.62C63.03 14.2 62.97 14.38 62.47 13.88C61.72 13.13 61.7 13.05 61.7 9.7L61.7 6.73L62.77 6.73L63.84 6.73L63.84 5.37L63.84 4.02L62.78 4.02L61.71 4.02L61.68 2.01L61.65 0L60.18 0.61ZM6.14 1.72C3.29 2.11 0.91 4.15 0.18 6.84C-0.04 7.66 -0.07 9.37 0.13 10.17C0.21 10.48 0.47 11.14 0.71 11.62C1.06 12.36 1.3 12.67 2.11 13.45C3.62 14.91 5.01 15.48 7.1 15.48C8.69 15.48 10.03 15.06 11.29 14.16C11.57 13.97 11.82 13.81 11.85 13.81C11.89 13.81 12.41 14.17 13.02 14.6L14.12 15.38L14.14 11.93C14.16 10.04 14.16 6.97 14.14 5.11L14.12 1.74L12.97 2.57L11.82 3.41L11.32 3.03C9.93 2.01 7.87 1.48 6.14 1.72ZM15.77 8.6L15.77 15.48L17.17 15.48L18.56 15.48L18.56 11.19C18.56 8.21 18.6 6.78 18.68 6.5C18.85 5.96 19.56 5.18 20.11 4.94C21.11 4.5 22.64 4.81 23.32 5.59C23.91 6.28 23.91 6.25 23.91 11.05L23.91 15.48L25.36 15.48L26.8 15.48L26.8 11.34C26.8 9.06 26.75 6.87 26.69 6.47C26.45 4.8 25.25 3.23 23.68 2.51C21.9 1.69 19.73 1.84 18.17 2.88C17.85 3.09 17.65 3.17 17.56 3.11C17.49 3.06 17.06 2.72 16.6 2.36L15.77 1.71L15.77 8.6ZM33.6 2C32.39 2.28 31.44 2.83 30.38 3.86C29.61 4.6 29.32 4.97 29.01 5.58C28.48 6.66 28.27 7.53 28.27 8.71C28.27 10.59 28.86 12.03 30.22 13.42C31.18 14.4 32.05 14.95 33.23 15.32C35.8 16.11 38.53 15.44 40.44 13.55C40.96 13.03 41.75 11.92 41.82 11.6C41.83 11.55 41.51 11.32 41.09 11.09C40.68 10.86 40.14 10.56 39.9 10.42L39.45 10.17L39.12 10.75C38.69 11.49 37.98 12.14 37.21 12.51C36.42 12.9 34.98 12.99 34.04 12.73C33.71 12.63 33.44 12.52 33.44 12.47C33.44 12.41 40.38 6.38 41.33 5.63C41.6 5.41 41.6 5.41 41.42 5.05C41.09 4.43 39.57 3.06 38.72 2.63C37.22 1.87 35.2 1.62 33.6 2ZM93.07 8.76L93.07 15.69L94.57 15.69L96.07 15.69L96.07 11.28L96.07 6.87L96.35 6.32C96.88 5.29 98.07 4.78 99.2 5.1C99.51 5.19 99.76 5.25 99.77 5.24C99.86 5.14 101 2.85 101 2.78C101 2.72 100.72 2.57 100.38 2.44C99.88 2.25 99.55 2.21 98.59 2.2C97.26 2.19 96.72 2.33 95.7 2.93L95.08 3.29L94.14 2.56C93.63 2.16 93.17 1.83 93.14 1.83C93.1 1.83 93.07 4.95 93.07 8.76ZM42.43 1.99C42.43 2.02 43.2 3.35 44.15 4.95C45.09 6.55 45.86 7.88 45.86 7.91C45.86 7.95 41.88 14.76 41.45 15.46L41.23 15.8L42.92 15.77L44.61 15.74L45.99 13.4C46.75 12.11 47.4 10.99 47.45 10.91C47.52 10.81 47.99 11.52 49.01 13.28L50.48 15.79L52.14 15.79C53.05 15.79 53.77 15.76 53.75 15.71C53.73 15.67 52.7 13.9 51.47 11.79C50.24 9.67 49.24 7.91 49.25 7.87C49.26 7.84 50 6.56 50.88 5.04C51.77 3.51 52.53 2.19 52.56 2.1C52.62 1.95 52.46 1.93 50.98 1.96L49.34 1.99L48.47 3.47C48 4.29 47.59 4.98 47.56 5C47.54 5.03 47.11 4.35 46.61 3.49L45.7 1.94L44.07 1.93C43.17 1.93 42.43 1.96 42.43 1.99ZM70.69 2.19C69.36 2.31 69.34 2.32 68.46 2.83C66.73 3.83 65.56 4.98 65.56 5.68C65.56 5.85 65.52 6 65.47 6C65.33 6 65.02 7.07 65.02 7.58C65.02 7.83 64.97 8.09 64.91 8.15C64.72 8.33 64.66 9.45 64.8 10.23C65.14 12.1 66.1 13.52 67.8 14.64C68.33 14.99 68.61 15.1 69.03 15.14C69.32 15.16 69.65 15.25 69.75 15.34C69.85 15.43 69.98 15.47 70.03 15.44C70.09 15.41 70.27 15.5 70.43 15.65L70.73 15.92L72.57 15.86C73.58 15.84 74.5 15.77 74.62 15.71C74.73 15.66 75.12 15.48 75.5 15.31C75.87 15.15 76.38 14.83 76.64 14.6C76.89 14.37 77.27 14.05 77.49 13.89C77.7 13.73 77.87 13.53 77.87 13.46C77.87 13.38 77.97 13.24 78.09 13.13C78.36 12.89 78.87 11.87 78.79 11.74C78.75 11.68 78.8 11.57 78.89 11.48C79.13 11.25 79.31 10.19 79.15 10C79.03 9.87 79.08 9.81 79.29 9.84C79.53 9.88 79.26 7.63 78.95 7.04C78.85 6.84 78.73 6.55 78.69 6.4C78.65 6.24 78.52 6.09 78.41 6.05C78.26 6 78.19 5.89 78.19 5.7C78.19 5.54 78.1 5.32 77.98 5.21C77.41 4.67 77.34 4.63 77.22 4.7C77.12 4.76 77.1 4.73 77.15 4.61C77.19 4.5 77.11 4.35 76.89 4.18C76.71 4.03 76.53 3.91 76.49 3.91C76.45 3.91 76.25 3.77 76.05 3.6C75.85 3.43 75.64 3.29 75.57 3.29C75.51 3.29 75.23 3.17 74.95 3.02C74.47 2.78 74.41 2.77 74.12 2.91C73.94 3 73.78 3.02 73.74 2.97C73.71 2.91 73.73 2.87 73.8 2.87C73.86 2.87 73.91 2.84 73.91 2.79C73.91 2.68 73.25 2.65 73.11 2.76C73.05 2.8 72.57 2.87 72.04 2.9C71.17 2.96 71.1 2.95 71.4 2.82C71.86 2.63 72.45 1.99 72.12 2.05C72.07 2.06 71.43 2.12 70.69 2.19ZM80.55 6.6C80.55 8.87 80.6 11.07 80.66 11.47C81.2 15.15 85.63 17.16 88.94 15.22C89.28 15.02 89.61 14.85 89.67 14.85C89.73 14.85 90.15 15.15 90.59 15.51C91.04 15.87 91.47 16.2 91.55 16.25C91.65 16.31 91.68 14.91 91.68 9.39L91.68 2.45L90.18 2.45L88.68 2.45L88.68 6.81C88.68 11.15 88.68 11.16 88.43 11.68C87.99 12.59 87.2 13.08 86.17 13.08C85.43 13.08 84.9 12.88 84.36 12.37C83.54 11.61 83.55 11.7 83.55 6.81L83.54 2.45L82.05 2.45L80.55 2.45L80.55 6.6ZM70.91 3.02C70.91 3.04 70.79 3.08 70.65 3.11C70.5 3.13 70.41 3.11 70.44 3.07C70.49 2.98 70.91 2.94 70.91 3.02ZM70.16 3.18C70.16 3.24 70.11 3.29 70.05 3.29C70 3.29 69.95 3.24 69.95 3.18C69.95 3.13 70 3.08 70.05 3.08C70.11 3.08 70.16 3.13 70.16 3.18ZM68.72 3.94C68.54 4.06 68.12 4.43 67.78 4.76C67.44 5.09 67.16 5.32 67.16 5.28C67.16 5.23 67.28 5.08 67.43 4.94C67.58 4.81 67.7 4.64 67.7 4.58C67.7 4.37 68.29 3.83 68.56 3.78C69.03 3.7 69.04 3.71 68.72 3.94ZM8.89 4.79C9.72 5.16 10.64 6.06 11.04 6.91C11.29 7.44 11.33 7.64 11.33 8.55C11.33 9.39 11.28 9.71 11.08 10.2C10.73 11.04 9.85 11.95 8.94 12.38C8.27 12.7 8.17 12.72 7.05 12.72C5.97 12.71 5.82 12.69 5.23 12.41C1.74 10.76 2.07 5.74 5.74 4.58C6.02 4.49 6.57 4.45 7.21 4.46C8.07 4.49 8.33 4.54 8.89 4.79ZM37.05 4.85C37.36 4.98 37.61 5.11 37.61 5.15C37.6 5.19 36.22 6.4 34.54 7.85L31.47 10.49L31.31 10.2C31.1 9.81 31.02 8.3 31.18 7.61C31.46 6.4 32.66 5.15 33.95 4.74C34.8 4.46 36.26 4.52 37.05 4.85ZM73.58 5.02C76.28 5.79 77.61 8.79 76.37 11.27C75.51 12.98 73.39 14.07 71.53 13.73C67.9 13.07 66.41 8.95 68.84 6.31C70 5.05 71.91 4.53 73.58 5.02ZM67.44 12.78C67.53 12.93 67.42 13.02 67.22 12.94C67.12 12.91 67.07 12.83 67.11 12.77C67.2 12.63 67.35 12.64 67.44 12.78Z" fill="#001E41" fill-opacity="1.000000" fill-rule="evenodd"/>
</svg>
