<svg width="97.318359" height="11.560547" viewBox="0 0 97.3184 11.5605" fill="none" xmlns="http://www.w3.org/2000/svg" xmlns:xlink="http://www.w3.org/1999/xlink">
	<defs/>
	<path id="Powered by Plerdy" d="M40.27 3.43Q39.58 4.31 39.58 5.77L39.58 5.85Q39.58 7.31 40.28 8.21Q40.65 8.7 41.15 8.92Q41.57 9.11 42.07 9.11Q42.84 9.11 43.38 8.76Q43.66 8.59 43.88 8.32L43.93 9L44.93 9L44.93 0L43.85 0L43.85 3.3Q43.62 3.03 43.33 2.86Q42.81 2.54 42.08 2.54Q41.53 2.54 41.08 2.75Q40.62 2.98 40.27 3.43ZM54.28 8.23Q54.95 7.35 54.95 5.9L54.95 5.8Q54.95 4.28 54.29 3.41Q54.01 3.03 53.63 2.82Q53.13 2.54 52.48 2.54Q51.75 2.54 51.22 2.86Q50.91 3.05 50.67 3.35L50.67 0L49.58 0L49.58 9L50.58 9L50.63 8.26Q50.87 8.57 51.17 8.76Q51.72 9.11 52.49 9.11Q53.08 9.11 53.54 8.87Q53.96 8.65 54.28 8.23ZM72.56 9L73.65 9L73.65 0L72.56 0L72.56 9ZM86.12 3.43Q85.42 4.31 85.42 5.77L85.42 5.85Q85.42 7.31 86.12 8.21Q86.5 8.7 86.99 8.92Q87.41 9.11 87.91 9.11Q88.68 9.11 89.23 8.76Q89.5 8.59 89.73 8.32L89.78 9L90.77 9L90.77 0L89.69 0L89.69 3.3Q89.46 3.03 89.18 2.86Q88.65 2.54 87.93 2.54Q87.37 2.54 86.93 2.75Q86.47 2.98 86.12 3.43ZM1.12 9L1.12 5.66L3.13 5.66Q4.58 5.66 5.35 4.98Q5.54 4.83 5.68 4.64Q6.13 4.02 6.13 3.07Q6.13 2.31 5.8 1.74Q5.62 1.43 5.34 1.18Q5.31 1.15 5.28 1.13Q4.49 0.46 3.14 0.46L0 0.46L0 9L1.12 9ZM66.19 9L66.19 5.66L68.2 5.66Q69.65 5.66 70.43 4.98Q70.61 4.83 70.75 4.64Q71.2 4.02 71.2 3.07Q71.2 2.31 70.87 1.74Q70.69 1.43 70.41 1.18Q70.38 1.15 70.36 1.13Q69.57 0.46 68.22 0.46L65.07 0.46L65.07 9L66.19 9ZM3.14 4.74L1.12 4.74L1.12 1.39L3.21 1.39Q3.97 1.41 4.43 1.78Q4.48 1.82 4.52 1.86Q4.66 1.99 4.76 2.15Q5 2.54 5 3.08Q5 3.73 4.69 4.14Q4.61 4.23 4.52 4.31Q4.04 4.74 3.14 4.74ZM68.22 4.74L66.19 4.74L66.19 1.39L68.28 1.39Q69.04 1.41 69.51 1.78Q69.55 1.82 69.6 1.86Q69.73 1.99 69.83 2.15Q70.08 2.54 70.08 3.08Q70.08 3.73 69.76 4.14Q69.69 4.23 69.6 4.31Q69.12 4.74 68.22 4.74ZM7.4 4.09Q7.03 4.83 7.03 5.77L7.03 5.84Q7.03 7.14 7.65 7.99Q7.73 8.11 7.83 8.22Q8.15 8.57 8.54 8.78Q9.14 9.11 9.92 9.11Q10.62 9.11 11.18 8.84Q11.31 8.78 11.44 8.7Q11.66 8.56 11.85 8.39Q12.22 8.04 12.45 7.56Q12.8 6.82 12.8 5.9L12.8 5.82Q12.8 4.5 12.17 3.64Q12.09 3.53 12 3.43Q11.69 3.09 11.31 2.87Q10.7 2.54 9.91 2.54Q9.25 2.54 8.71 2.79Q8.56 2.85 8.42 2.94Q8.25 3.04 8.11 3.17Q7.67 3.54 7.4 4.09ZM24.33 8.75Q24.97 9.11 25.81 9.11Q26.76 9.11 27.43 8.68Q27.88 8.38 28.2 7.89L27.54 7.37Q27.28 7.71 26.94 7.93Q26.89 7.96 26.84 7.99Q26.44 8.23 25.87 8.23Q25.42 8.23 25.06 8.05Q24.77 7.91 24.54 7.65Q24.46 7.57 24.4 7.48Q24.01 6.94 23.99 6.14L28.28 6.14L28.28 5.68Q28.28 4.17 27.6 3.35Q27.4 3.11 27.15 2.94Q26.55 2.54 25.68 2.54Q25.35 2.54 25.04 2.62Q24.64 2.72 24.27 2.96Q24.1 3.07 23.94 3.21Q23.53 3.58 23.27 4.12Q22.91 4.86 22.91 5.8L22.91 6Q22.91 7.17 23.46 7.95Q23.57 8.12 23.71 8.27Q23.99 8.56 24.33 8.75ZM32.07 3.59Q32.36 3.59 32.6 3.63L32.6 2.62Q32.44 2.54 32.12 2.54Q31.66 2.54 31.3 2.73Q30.89 2.94 30.61 3.39L30.59 2.66L29.54 2.66L29.54 9L30.62 9L30.62 4.5Q30.79 4.1 31.08 3.88Q31.47 3.59 32.07 3.59ZM34.64 8.75Q35.28 9.11 36.12 9.11Q37.07 9.11 37.73 8.68Q38.19 8.38 38.51 7.89L37.85 7.37Q37.58 7.71 37.24 7.93Q37.2 7.96 37.15 7.99Q36.75 8.23 36.18 8.23Q35.73 8.23 35.37 8.05Q35.08 7.91 34.84 7.65Q34.77 7.57 34.7 7.48Q34.32 6.94 34.3 6.14L38.59 6.14L38.59 5.68Q38.59 4.17 37.91 3.35Q37.7 3.11 37.45 2.94Q36.85 2.54 35.98 2.54Q35.65 2.54 35.34 2.62Q34.94 2.72 34.58 2.96Q34.4 3.07 34.25 3.21Q33.83 3.58 33.57 4.12Q33.21 4.86 33.21 5.8L33.21 6Q33.21 7.17 33.76 7.95Q33.88 8.12 34.02 8.27Q34.3 8.56 34.64 8.75ZM76.53 8.75Q77.17 9.11 78.01 9.11Q78.96 9.11 79.63 8.68Q80.08 8.38 80.4 7.89L79.74 7.37Q79.48 7.71 79.14 7.93Q79.09 7.96 79.04 7.99Q78.65 8.23 78.07 8.23Q77.62 8.23 77.26 8.05Q76.97 7.91 76.74 7.65Q76.66 7.57 76.6 7.48Q76.21 6.94 76.19 6.14L80.49 6.14L80.49 5.68Q80.49 4.17 79.8 3.35Q79.6 3.11 79.35 2.94Q78.75 2.54 77.88 2.54Q77.55 2.54 77.24 2.62Q76.84 2.72 76.47 2.96Q76.3 3.07 76.14 3.21Q75.73 3.58 75.47 4.12Q75.11 4.86 75.11 5.8L75.11 6Q75.11 7.17 75.66 7.95Q75.77 8.12 75.91 8.27Q76.2 8.56 76.53 8.75ZM84.27 3.59Q84.56 3.59 84.8 3.63L84.8 2.62Q84.64 2.54 84.32 2.54Q83.86 2.54 83.5 2.73Q83.09 2.94 82.81 3.39L82.79 2.66L81.74 2.66L81.74 9L82.82 9L82.82 4.5Q82.99 4.1 83.28 3.88Q83.67 3.59 84.27 3.59ZM21 2.66L19.78 7.5L18.27 2.66L17.4 2.66L15.92 7.4L14.67 2.66L13.59 2.66L15.43 9L16.31 9L17.81 4.19L19.35 9L20.23 9L22.08 2.66L21 2.66ZM59.8 2.66L58.33 7.41L56.74 2.66L55.56 2.66L57.82 8.92L57.58 9.57Q57.38 10.16 57.07 10.38Q56.77 10.61 56.22 10.61L55.92 10.58L55.92 11.46L56.33 11.54L56.53 11.56Q56.92 11.56 57.24 11.41Q58 11.08 58.41 9.97L60.96 2.66L59.8 2.66ZM96.01 2.66L94.53 7.41L92.95 2.66L91.76 2.66L94.03 8.92L93.79 9.57Q93.59 10.16 93.28 10.38Q92.97 10.61 92.42 10.61L92.13 10.58L92.13 11.46L92.53 11.54L92.74 11.56Q93.12 11.56 93.45 11.41Q94.2 11.08 94.62 9.97L97.17 2.66L96.01 2.66ZM8.61 7.59Q8.12 6.95 8.12 5.9Q8.12 4.71 8.61 4.07Q8.86 3.74 9.19 3.58Q9.51 3.43 9.91 3.43Q10.33 3.43 10.66 3.6Q10.98 3.76 11.22 4.08Q11.72 4.72 11.72 5.77Q11.72 6.93 11.23 7.58Q11 7.89 10.69 8.05Q10.35 8.23 9.92 8.23Q9.49 8.23 9.15 8.05Q8.84 7.89 8.61 7.59ZM25.06 3.55Q25.34 3.43 25.68 3.43Q26.13 3.43 26.46 3.63Q26.62 3.73 26.75 3.88Q27.15 4.34 27.2 5.16L27.2 5.25L24.02 5.25Q24.13 4.38 24.58 3.91Q24.79 3.67 25.06 3.55ZM35.37 3.55Q35.65 3.43 35.98 3.43Q36.44 3.43 36.77 3.63Q36.93 3.73 37.06 3.88Q37.46 4.34 37.51 5.16L37.51 5.25L34.33 5.25Q34.44 4.38 34.88 3.91Q35.1 3.67 35.37 3.55ZM77.27 3.55Q77.54 3.43 77.88 3.43Q78.33 3.43 78.66 3.63Q78.82 3.73 78.96 3.88Q79.35 4.34 79.4 5.16L79.4 5.25L76.23 5.25Q76.33 4.38 76.78 3.91Q77 3.67 77.27 3.55ZM41.11 7.58Q40.66 6.97 40.66 5.9Q40.66 4.69 41.11 4.07Q41.31 3.8 41.57 3.65Q41.91 3.46 42.35 3.46Q42.84 3.46 43.21 3.67Q43.6 3.9 43.85 4.35L43.85 7.27Q43.61 7.74 43.22 7.97Q42.85 8.19 42.34 8.19Q41.91 8.19 41.58 8.01Q41.31 7.86 41.11 7.58ZM53.44 4.06Q53.87 4.66 53.87 5.77Q53.87 6.99 53.43 7.59Q53.24 7.86 52.98 8.01Q52.65 8.19 52.22 8.19Q51.74 8.19 51.38 7.99Q50.94 7.74 50.67 7.2L50.67 4.45Q50.91 3.93 51.32 3.68Q51.7 3.46 52.21 3.46Q52.69 3.46 53.03 3.67Q53.27 3.82 53.44 4.06ZM86.95 7.58Q86.51 6.97 86.51 5.9Q86.51 4.69 86.95 4.07Q87.15 3.8 87.42 3.65Q87.75 3.46 88.2 3.46Q88.69 3.46 89.06 3.67Q89.44 3.9 89.69 4.35L89.69 7.27Q89.45 7.74 89.06 7.97Q88.69 8.19 88.18 8.19Q87.75 8.19 87.43 8.01Q87.16 7.86 86.95 7.58Z" fill="#BDBDBD" fill-opacity="1.000000" fill-rule="evenodd"/>
</svg>
