<svg width="81.000000" height="21.387695" viewBox="0 0 81 21.3877" fill="none" xmlns="http://www.w3.org/2000/svg" xmlns:xlink="http://www.w3.org/1999/xlink">
	<defs/>
	<path id="image 87 (Traced)" d="M0.03 8.51L0 17.03L8.91 17.03L17.82 17.03L17.82 8.51L17.82 0L8.94 0L0.06 0L0.03 8.51ZM13.81 8.51L13.81 13.18L8.94 13.18L4.08 13.18L4.08 8.51L4.08 3.85L8.94 3.85L13.81 3.85L13.81 8.51ZM52.22 5.03C49.83 5.53 47.78 7.35 47.18 9.49C46.97 10.24 46.95 11.76 47.14 12.54C47.59 14.42 49.31 16.2 51.38 16.93C52.47 17.32 55.03 17.31 56.13 16.93C57.18 16.56 57.99 16.04 58.83 15.19C60.04 13.98 60.48 12.86 60.48 11.04C60.49 9.65 60.15 8.59 59.39 7.6C57.74 5.46 54.96 4.46 52.22 5.03ZM29 5.15C28.08 5.35 27.45 5.68 26.97 6.23L26.64 6.6L26.64 5.91L26.64 5.22L24.83 5.22L23.01 5.22L23.01 13.3L23.01 21.38L24.83 21.38L26.64 21.38L26.64 18.43L26.65 15.48L26.92 15.88C27.31 16.47 28.56 17.02 29.72 17.12C32.29 17.32 34.52 16.11 35.64 13.9C37.08 11.08 36.19 7.68 33.55 5.94C32.35 5.15 30.5 4.83 29 5.15ZM43.91 5.15C43.18 5.37 42.4 5.89 42.08 6.38L41.82 6.77L41.82 5.99L41.81 5.22L40 5.22L38.18 5.22L38.18 11.06L38.18 16.91L40 16.91L41.81 16.91L41.81 13.82C41.81 10.26 41.91 9.75 42.68 9.02C43.32 8.43 44.16 8.18 45.34 8.21L46.29 8.24L46.29 6.64L46.29 5.03L45.38 5.01C44.88 4.99 44.22 5.06 43.91 5.15ZM67.99 5.14C67.25 5.39 66.62 5.81 66.33 6.25L66.07 6.65L66.06 5.93L66.06 5.22L64.25 5.22L62.43 5.22L62.43 11.06L62.43 16.91L64.25 16.91L66.06 16.91L66.07 13.33C66.07 9.41 66.11 9.14 66.9 8.45C67.2 8.19 67.38 8.14 68.07 8.14C68.7 8.14 68.95 8.2 69.18 8.39C69.78 8.91 69.82 9.2 69.82 13.17L69.82 16.91L71.63 16.91L73.44 16.91L73.48 13.27C73.52 9.86 73.54 9.6 73.79 9.13C74.16 8.46 74.77 8.08 75.5 8.08C76.25 8.08 76.77 8.39 77.09 9.02C77.33 9.49 77.34 9.79 77.34 13.22L77.34 16.91L79.17 16.91L81 16.91L80.95 12.59L80.91 8.26L80.57 7.5C79.77 5.66 78.34 4.86 76.12 5.01C74.66 5.1 73.92 5.38 73.14 6.13C72.7 6.55 72.48 6.69 72.44 6.57C72.29 6.13 71.29 5.36 70.61 5.17C69.77 4.93 68.64 4.92 67.99 5.14ZM55.07 8.28C56.24 8.85 56.89 9.84 56.9 11.06C56.92 13.71 53.78 15.13 51.73 13.39C50.94 12.73 50.64 12.09 50.63 11.11C50.63 9.99 51.05 9.17 51.96 8.55C52.8 7.98 54.2 7.86 55.07 8.28ZM30.83 8.38C32.24 8.95 32.97 10.37 32.6 11.84C32.47 12.34 32.29 12.62 31.77 13.13C31.2 13.67 30.98 13.79 30.36 13.92C27.94 14.4 25.9 12.46 26.56 10.29C26.8 9.5 27.45 8.79 28.25 8.44C28.9 8.16 30.19 8.13 30.83 8.38Z" fill="#001E41" fill-opacity="1.000000" fill-rule="evenodd"/>
</svg>
